<svg width="120" height="24" viewBox="0 0 120 24" fill="none" xmlns="http://www.w3.org/2000/svg">
<path d="M21.947 9.17901C21.8842 8.99388 21.7685 8.83121 21.6142 8.71107C21.46 8.59094 21.2739 8.51861 21.079 8.50301L15.378 8.05001L12.911 2.58901C12.8325 2.41313 12.7047 2.26374 12.5431 2.15887C12.3815 2.05401 12.193 1.99815 12.0004 1.99805C11.8077 1.99794 11.6192 2.05359 11.4575 2.15828C11.2957 2.26296 11.1678 2.41221 11.089 2.58801L8.62203 8.05001L2.92103 8.50301C2.72948 8.51819 2.54636 8.58822 2.39358 8.70475C2.2408 8.82127 2.12482 8.97934 2.05952 9.16004C1.99422 9.34075 1.98236 9.53645 2.02537 9.72372C2.06838 9.91099 2.16443 10.0819 2.30203 10.216L6.51503 14.323L5.02503 20.775C4.97978 20.9703 4.99428 21.1747 5.06665 21.3617C5.13901 21.5486 5.26589 21.7095 5.43083 21.8235C5.59577 21.9374 5.79115 21.9991 5.99161 22.0007C6.19208 22.0022 6.38837 21.9434 6.55503 21.832L12 18.202L17.445 21.832C17.6154 21.9451 17.8162 22.0033 18.0207 21.9988C18.2251 21.9944 18.4232 21.9274 18.5884 21.8069C18.7536 21.6865 18.878 21.5183 18.9448 21.3251C19.0116 21.1318 19.0176 20.9228 18.962 20.726L17.133 14.326L21.669 10.244C21.966 9.97601 22.075 9.55801 21.947 9.17901Z" fill="#FFAD31"/>
<path d="M69.947 9.17901C69.8842 8.99388 69.7685 8.83121 69.6142 8.71107C69.46 8.59094 69.2739 8.51861 69.079 8.50301L63.378 8.05001L60.911 2.58901C60.8325 2.41313 60.7047 2.26374 60.5431 2.15887C60.3815 2.05401 60.193 1.99815 60.0004 1.99805C59.8077 1.99794 59.6192 2.05359 59.4575 2.15828C59.2957 2.26296 59.1678 2.41221 59.089 2.58801L56.622 8.05001L50.921 8.50301C50.7295 8.51819 50.5464 8.58822 50.3936 8.70475C50.2408 8.82127 50.1248 8.97934 50.0595 9.16004C49.9942 9.34075 49.9824 9.53645 50.0254 9.72372C50.0684 9.91099 50.1644 10.0819 50.302 10.216L54.515 14.323L53.025 20.775C52.9798 20.9703 52.9943 21.1747 53.0666 21.3617C53.139 21.5486 53.2659 21.7095 53.4308 21.8235C53.5958 21.9374 53.7911 21.9991 53.9916 22.0007C54.1921 22.0022 54.3884 21.9434 54.555 21.832L60 18.202L65.445 21.832C65.6154 21.9451 65.8162 22.0033 66.0207 21.9988C66.2251 21.9944 66.4232 21.9274 66.5884 21.8069C66.7536 21.6865 66.878 21.5183 66.9448 21.3251C67.0116 21.1318 67.0176 20.9228 66.962 20.726L65.133 14.326L69.669 10.244C69.966 9.97601 70.075 9.55801 69.947 9.17901Z" fill="#FFAD31"/>
<path d="M45.947 9.17901C45.8842 8.99388 45.7685 8.83121 45.6142 8.71107C45.46 8.59094 45.2739 8.51861 45.079 8.50301L39.378 8.05001L36.911 2.58901C36.8325 2.41313 36.7047 2.26374 36.5431 2.15887C36.3815 2.05401 36.193 1.99815 36.0004 1.99805C35.8077 1.99794 35.6192 2.05359 35.4575 2.15828C35.2957 2.26296 35.1678 2.41221 35.089 2.58801L32.622 8.05001L26.921 8.50301C26.7295 8.51819 26.5464 8.58822 26.3936 8.70475C26.2408 8.82127 26.1248 8.97934 26.0595 9.16004C25.9942 9.34075 25.9824 9.53645 26.0254 9.72372C26.0684 9.91099 26.1644 10.0819 26.302 10.216L30.515 14.323L29.025 20.775C28.9798 20.9703 28.9943 21.1747 29.0666 21.3617C29.139 21.5486 29.2659 21.7095 29.4308 21.8235C29.5958 21.9374 29.7911 21.9991 29.9916 22.0007C30.1921 22.0022 30.3884 21.9434 30.555 21.832L36 18.202L41.445 21.832C41.6154 21.9451 41.8162 22.0033 42.0207 21.9988C42.2251 21.9944 42.4232 21.9274 42.5884 21.8069C42.7536 21.6865 42.878 21.5183 42.9448 21.3251C43.0116 21.1318 43.0176 20.9228 42.962 20.726L41.133 14.326L45.669 10.244C45.966 9.97601 46.075 9.55801 45.947 9.17901Z" fill="#FFAD31"/>
<path d="M93.947 9.17901C93.8842 8.99388 93.7685 8.83121 93.6142 8.71107C93.46 8.59094 93.2739 8.51861 93.079 8.50301L87.378 8.05001L84.911 2.58901C84.8325 2.41313 84.7047 2.26374 84.5431 2.15887C84.3815 2.05401 84.193 1.99815 84.0004 1.99805C83.8077 1.99794 83.6192 2.05359 83.4575 2.15828C83.2957 2.26296 83.1678 2.41221 83.089 2.58801L80.622 8.05001L74.921 8.50301C74.7295 8.51819 74.5464 8.58822 74.3936 8.70475C74.2408 8.82127 74.1248 8.97934 74.0595 9.16004C73.9942 9.34075 73.9824 9.53645 74.0254 9.72372C74.0684 9.91099 74.1644 10.0819 74.302 10.216L78.515 14.323L77.025 20.775C76.9798 20.9703 76.9943 21.1747 77.0666 21.3617C77.139 21.5486 77.2659 21.7095 77.4308 21.8235C77.5958 21.9374 77.7911 21.9991 77.9916 22.0007C78.1921 22.0022 78.3884 21.9434 78.555 21.832L84 18.202L89.445 21.832C89.6154 21.9451 89.8162 22.0033 90.0207 21.9988C90.2251 21.9944 90.4232 21.9274 90.5884 21.8069C90.7536 21.6865 90.878 21.5183 90.9448 21.3251C91.0116 21.1318 91.0176 20.9228 90.962 20.726L89.133 14.326L93.669 10.244C93.966 9.97601 94.075 9.55801 93.947 9.17901Z" fill="#FFAD31"/>
<path d="M117.947 9.17901C117.884 8.99388 117.768 8.83121 117.614 8.71107C117.46 8.59094 117.274 8.51861 117.079 8.50301L111.378 8.05001L108.911 2.58901C108.832 2.41313 108.705 2.26374 108.543 2.15887C108.381 2.05401 108.193 1.99815 108 1.99805C107.808 1.99794 107.619 2.05359 107.457 2.15828C107.296 2.26296 107.168 2.41221 107.089 2.58801L104.622 8.05001L98.921 8.50301C98.7295 8.51819 98.5464 8.58822 98.3936 8.70475C98.2408 8.82127 98.1248 8.97934 98.0595 9.16004C97.9942 9.34075 97.9824 9.53645 98.0254 9.72372C98.0684 9.91099 98.1644 10.0819 98.302 10.216L102.515 14.323L101.025 20.775C100.98 20.9703 100.994 21.1747 101.067 21.3617C101.139 21.5486 101.266 21.7095 101.431 21.8235C101.596 21.9374 101.791 21.9991 101.992 22.0007C102.192 22.0022 102.388 21.9434 102.555 21.832L108 18.202L113.445 21.832C113.615 21.9451 113.816 22.0033 114.021 21.9988C114.225 21.9944 114.423 21.9274 114.588 21.8069C114.754 21.6865 114.878 21.5183 114.945 21.3251C115.012 21.1318 115.018 20.9228 114.962 20.726L113.133 14.326L117.669 10.244C117.966 9.97601 118.075 9.55801 117.947 9.17901Z" fill="#DBDBDB"/>
</svg>
